HIERARCHY
ROOT Hips
{
  OFFSET 43.866 97.4164 -288.488
  CHANNELS 6 Xposition Yposition Zposition Zrotation Xrotation Yrotation
  JOINT ToSpine
  {
    OFFSET -2.69724 7.43032 -0.144315
    CHANNELS 3 Zrotation Xrotation Yrotation
    JOINT Spine
    {
      OFFSET -0.0310711 10.7595 1.96963
      CHANNELS 3 Zrotation Xrotation Yrotation
      JOINT Spine1
      {
        OFFSET 13.1342 3.43533 0.764692
        CHANNELS 3 Zrotation Xrotation Yrotation
        JOINT Neck
        {
          OFFSET 29.8703 7.82586 -0.130764
          CHANNELS 3 Zrotation Xrotation Yrotation
          JOINT Head
          {
            OFFSET 9.52751 0.295786 -0.907742
            CHANNELS 3 Zrotation Xrotation Yrotation
            End Site
            {
              OFFSET 16.4037 0.713936 2.7358
            }
          }
        }
        JOINT LeftShoulder
        {
          OFFSET 27.5574 4.95586 2.47156
          CHANNELS 3 Zrotation Xrotation Yrotation
          JOINT LeftArm
          {
            OFFSET 1.20734 -0.998971 20.1238
            CHANNELS 3 Zrotation Xrotation Yrotation
            JOINT LeftForeArm
            {
              OFFSET 26.8049 -0.0536703 -0.155908
              CHANNELS 3 Zrotation Xrotation Yrotation
              JOINT LeftHand
              {
                OFFSET 26.6817 0 0.320147
                CHANNELS 3 Zrotation Xrotation Yrotation
                End Site
                {
                  OFFSET 18.6119 0 0.382219
                }
              }
            }
          }
        }
        JOINT RightShoulder
        {
          OFFSET 27.5927 4.71444 -2.65209
          CHANNELS 3 Zrotation Xrotation Yrotation
          JOINT RightArm
          {
            OFFSET 2.83739 -1.17114 -18.7564
            CHANNELS 3 Zrotation Xrotation Yrotation
            JOINT RightForeArm
            {
              OFFSET 28.839 -0.0548439 1.22491
              CHANNELS 3 Zrotation Xrotation Yrotation
              JOINT RightHand
              {
                OFFSET 26.5114 0 -0.101894
                CHANNELS 3 Zrotation Xrotation Yrotation
                End Site
                {
                  OFFSET 18.2168 0 0
                }
              }
            }
          }
        }
      }
    }
  }
  JOINT LeftUpLeg
  {
    OFFSET -4.76168 -1.9167 -10.2353
    CHANNELS 3 Zrotation Xrotation Yrotation
    JOINT LeftLeg
    {
      OFFSET 2.55951 -42.0585 -8.02213
      CHANNELS 3 Zrotation Xrotation Yrotation
      JOINT LeftFoot
      {
        OFFSET 3.16357 -42.5282 -3.95426
        CHANNELS 3 Zrotation Xrotation Yrotation
        JOINT LeftToeBase
        {
          OFFSET 0.346054 -6.02161 12.8035
          CHANNELS 3 Zrotation Xrotation Yrotation
          End Site
          {
            OFFSET 0.134235 -1.35082 5.13018
          }
        }
      }
    }
  }
  JOINT RightUpLeg
  {
    OFFSET -4.94151 -1.41743 10.6446
    CHANNELS 3 Zrotation Xrotation Yrotation
    JOINT RightLeg
    {
      OFFSET -2.56294 -42.0364 -7.94377
      CHANNELS 3 Zrotation Xrotation Yrotation
      JOINT RightFoot
      {
        OFFSET -3.0952 -42.555 -4.02241
        CHANNELS 3 Zrotation Xrotation Yrotation
        JOINT RightToeBase
        {
          OFFSET -0.0828122 -6.13587 12.8035
          CHANNELS 3 Zrotation Xrotation Yrotation
          End Site
          {
            OFFSET -0.131328 -1.35082 5.13018
          }
        }
      }
    }
  }
}
MOTION
Frames:	6
Frame Time:	0.0333333
43.866 97.4164 -288.488 -7.3107 -68.0326 -96.3844 -70.1915 0 88.8779 63.6662 69.4716 25.8671 6.63506 20.9678 0.953054 -159.56 19.6297 175.2 -158.005 58.9336 -174.363 -0.339159 -15.7652 -35.5534 -72.251 45.8337 -86.2766 9.89106 17.9982 -29.4706 0.420957 0.00057542 0.35866 -1.96987 6.21602 46.1101 -65.7929 -34.2582 93.8154 9.45731 -17.9571 28.5216 0.58676 0.000331176 0.0646654 -48.4021 -3.86135 90.1223 -1.81252 33.1426 -6.61591 5.10659 -17.8533 -1.3713 -3.37778 0.549227 14.5416 -52.0154 2.31486 81.3471 2.08045 22.88 3.97076 -6.79317 -11.3901 1.24134 1.16429 -1.20715 -6.7621 
44.1685 97.2019 -288.144 -6.75636 -68.5808 -95.6316 -70.1915 0 88.8779 67.5285 70.0171 21.7283 5.86023 20.8928 1.09109 -159.477 19.6007 175.079 -158.283 58.9925 -173.097 -0.271037 -15.5541 -35.2529 -71.066 46.0368 -87.2214 9.85723 17.7313 -29.6231 0.420957 0.00057542 0.35866 -1.98411 6.25506 46.1317 -66.3033 -34.3077 93.7155 8.24869 -15.4627 28.638 0.58676 0.000331176 0.0646654 -48.7981 -4.35184 89.0352 -1.97396 34.0027 -5.86724 5.51721 -18.1359 -1.3683 -3.02546 -0.0898544 14.7247 -51.6398 2.73615 81.8926 1.35533 25.1273 3.78293 -8.92587 -11.5336 1.30594 1.59341 -2.74922 -9.16999 
44.3455 96.9474 -287.54 -5.21308 -68.4521 -94.4156 -70.1915 0 88.8779 64.7641 69.7123 23.1033 6.69305 20.6413 1.65149 -159.626 19.5915 174.942 -158.378 59.0118 -172.682 -0.234239 -15.4417 -35.0718 -70.1017 46.1689 -87.9632 10.2394 17.8514 -30.1775 0.420957 0.00057542 0.35866 -1.99339 6.33565 45.8734 -67.5089 -34.6008 93.1981 8.12406 -15.7978 27.9721 0.58676 0.000331176 0.0646654 -48.7852 -4.73371 89.4516 -2.11673 34.4448 -7.10597 5.74087 -18.2881 -1.36574 -2.58802 -0.738693 14.5577 -49.9676 3.06356 83.6815 0.517512 28.6226 1.939 -6.40147 -13.636 1.28053 1.77647 -2.37386 -10.576 
44.6453 96.5464 -287.482 -7.16825 -68.5312 -96.9975 -70.1915 0 88.8779 71.6117 71.1005 15.6729 4.26413 21.1951 1.61715 -159.912 19.7034 174.952 -158.409 59.1459 -172.395 -0.307829 -15.6788 -35.3673 -70.2556 45.6489 -87.4781 10.6756 18.0426 -30.9168 0.420957 0.00057542 0.35866 -2.00573 6.36202 45.9295 -67.0088 -34.5259 93.5445 7.54031 -14.3606 28.2238 0.58676 0.000331176 0.0646654 -48.4178 -5.30801 89.9515 -2.18703 35.6099 -6.03464 5.416 -19.2191 -1.40802 -2.75316 -0.0441107 13.3698 -46.7065 3.93369 88.3653 1.18892 34.7595 -1.30913 -6.07139 -12.8682 1.25738 2.35893 -7.09741 -14.9705 
44.8952 96.3573 -286.94 -7.62689 -68.438 -98.0367 -70.1915 0 88.8779 73.1774 71.3363 13.5512 4.03762 21.4067 1.1165 -159.992 19.5856 174.787 -157.892 59.056 -171.629 -0.303521 -15.6932 -35.216 -69.9404 45.1579 -87.4729 10.8075 17.3923 -32.1564 0.420957 0.00057542 0.35866 -2.07141 6.44046 46.5218 -66.999 -34.274 93.3074 7.71078 -14.3147 28.8318 0.58676 0.000331176 0.0646654 -48.7933 -5.98875 90.2678 -2.15231 35.4964 -5.75072 5.47079 -19.1696 -1.40406 -2.1831 -0.912891 13.1511 -43.059 4.17495 90.0322 1.65332 41.8397 -1.24894 -3.71826 -12.374 1.19399 2.9525 -8.20297 -21.5999 
45.2503 96.1062 -286.19 -6.70507 -68.0205 -97.5126 -70.1915 0 88.8779 72.4612 71.0151 14.1696 4.60326 21.2721 0.363768 -160.67 19.5737 175.592 -158.338 59.1234 -170.857 -0.363727 -15.8571 -35.5821 -69.2609 44.2595 -88.1323 10.19 16.2012 -32.4012 0.420957 0.00057542 0.35866 -2.04644 6.41791 46.2628 -68.0029 -34.7883 92.5827 8.5349 -15.3023 29.7321 0.58676 0.000331176 0.0646654 -48.6335 -6.63825 90.498 -2.08021 35.7192 -5.45703 5.48029 -19.5837 -1.4174 -2.08876 -0.730842 12.184 -39.5698 3.54708 89.6335 1.74641 45.5947 -2.8079 -6.93917 -11.9616 1.25597 2.41681 -11.6504 -16.5466 
